<?xml version="1.0" encoding="UTF-8"?>
<svg width="1500px" height="1400px" viewBox="0 0 1500 1400" version="1.1" xmlns="http://www.w3.org/2000/svg" xmlns:xlink="http://www.w3.org/1999/xlink">
    <title>logo</title>
    <g id="logo" stroke="none" stroke-width="1" fill="none" fill-rule="evenodd">
        <rect id="Rectangle" fill="#E39623" x="9" y="11" width="1469" height="1352" rx="37"></rect>
        <path d="M1282.91895,1006.44144 C1337.79791,913.503404 1371,801.246781 1371,685.5 C1371,340.598174 1091.40183,61 746.5,61 C401.598174,61 122,340.598174 122,685.5 C122,802.854825 154.37019,912.649187 210.668917,1006.44144 L1282.91895,1006.44144 Z" id="Oval" fill="#FFFFFF"></path>
        <g id="Car-Outline" transform="translate(251.216841, 296.865473)">
            <path d="M63.7831591,246.134527 C69.804969,242.522802 95.7050341,239.972469 141.483354,238.483526 C165.585853,97.0214493 181.942318,23.2764135 190.552751,17.2484187 C203.468401,8.2064265 342.517028,-2.36975499 497.118425,0.470464582 C651.719822,3.31068415 793.630876,14.1945246 804.303911,23.6375788 C811.419268,29.9329483 827.96484,101.548264 853.94063,238.483526 C900.838742,244.236293 926.946733,249.583746 932.264604,254.525885 C937.582476,259.468023 946.966102,287.881964 960.415483,339.767706 L960.415483,379.872076 L955.401567,444.877261 C956.631066,449.666885 958.302371,454.396785 960.415483,459.066961 C963.585152,466.072225 957.245815,523.053722 955.401567,530.347906 C954.172069,535.210695 949.118683,538.047202 940.241411,538.857427 C971.114254,544.303594 988.934445,549.153082 993.701982,553.405889 C998.46952,557.658697 998.46952,578.518153 993.701982,615.984259 L972.292559,659.691656 C1001.0356,826.924139 971.222794,859.645608 920.429277,889.754522 L828.755449,889.754522 C797.699134,860.085821 776.409217,803.251328 764.885698,719.251043 L238.072161,719.251043 C221.681088,801.16889 197.212196,858.003383 164.665483,889.754522 L63.7831591,889.754522 C21.6176318,849.849208 10.1518115,779.469549 29.3856982,678.615545 C20.6020754,668.398624 13.6899254,655.903649 8.64924798,641.130621 C3.60857058,626.357592 0.903777289,610.66759 0.5348681,594.060614 C-1.25561855,578.2709 1.44917474,568.023687 8.64924798,563.318975 C15.8493212,558.614263 32.3152229,555.309901 58.0469531,553.405889 L58.0469531,538.857427 C54.683916,537.620896 51.2965055,534.784389 47.8847216,530.347906 C44.4729378,525.911423 42.7670458,509.567348 42.7670458,481.315679 L42.7670458,319.830999 C50.7559781,274.311743 57.7613492,249.746252 63.7831591,246.134527 Z" id="Rectangle" fill="#000000"></path>
            <path d="M69.7831591,246.134527 C75.804969,242.522802 101.705034,239.972469 147.483354,238.483526 C171.585853,97.0214493 187.942318,23.2764135 196.552751,17.2484187 C209.468401,8.2064265 348.517028,-2.36975499 503.118425,0.470464582 C657.719822,3.31068415 799.630876,14.1945246 810.303911,23.6375788 C817.419268,29.9329483 833.96484,101.548264 859.94063,238.483526 C906.838742,244.236293 932.946733,249.583746 938.264604,254.525885 C943.582476,259.468023 952.966102,287.881964 966.415483,339.767706 L966.415483,379.872076 L961.401567,444.877261 C962.631066,449.666885 964.302371,454.396785 966.415483,459.066961 C969.585152,466.072225 963.245815,523.053722 961.401567,530.347906 C960.172069,535.210695 955.118683,538.047202 946.241411,538.857427 C977.114254,544.303594 994.934445,549.153082 999.701982,553.405889 C1004.46952,557.658697 1004.46952,578.518153 999.701982,615.984259 L978.292559,659.691656 C1007.0356,826.924139 977.222794,859.645608 926.429277,889.754522 L834.755449,889.754522 C803.699134,860.085821 782.409217,803.251328 770.885698,719.251043 L244.072161,719.251043 C227.681088,801.16889 203.212196,858.003383 170.665483,889.754522 L69.7831591,889.754522 C27.6176318,849.849208 16.1518115,779.469549 35.3856982,678.615545 C26.6020754,668.398624 19.6899254,655.903649 14.649248,641.130621 C9.60857058,626.357592 6.90377729,610.66759 6.5348681,594.060614 C4.74438145,578.2709 7.44917474,568.023687 14.649248,563.318975 C21.8493212,558.614263 38.3152229,555.309901 64.0469531,553.405889 L64.0469531,538.857427 C60.683916,537.620896 57.2965055,534.784389 53.8847216,530.347906 C50.4729378,525.911423 48.7670458,509.567348 48.7670458,481.315679 L48.7670458,319.830999 C56.7559781,274.311743 63.7613492,249.746252 69.7831591,246.134527 Z" id="Rectangle" stroke="#E39623" stroke-width="16" stroke-linejoin="round"></path>
        </g>
        <path d="M415.894104,623.873962 L1109.31848,630.182922 C1086.45431,720.917094 1062.76074,769.873881 1038.23779,777.053284 C1001.45337,787.822388 504.849976,787.822388 481.668274,777.053284 C466.213806,769.873881 444.289083,718.814107 415.894104,623.873962 Z" id="Rectangle-2" stroke="#E39623" stroke-width="8" stroke-linejoin="round"></path>
        <polygon id="Rectangle" fill="#E39623" points="298 624 391.857849 624 406.894104 672 298 672"></polygon>
        <polygon id="Rectangle" stroke="#E39623" stroke-width="10" points="299 684 406.894104 684 437.5 758.5 299 758"></polygon>
        <polygon id="Rectangle" stroke="#E39623" stroke-width="10" transform="translate(1152.765442, 723.750000) scale(-1, 1) translate(-1152.765442, -723.750000) " points="1088.5 686.5 1190.9364 686.5 1217.03088 761 1096.53088 761"></polygon>
        <polygon id="Rectangle" fill="#E39623" transform="translate(1163.744293, 651.000000) scale(-1, 1) translate(-1163.744293, -651.000000) " points="1114.59448 630 1201.3374 630 1212.8941 672 1114.59448 672"></polygon>
        <line x1="318.5" y1="849.5" x2="834.5" y2="849.5" id="Line-3" stroke="#E39623" stroke-width="15" stroke-linecap="round" stroke-linejoin="round"></line>
        <line x1="815.5" y1="854.5" x2="1242.5" y2="854.5" id="Line-3" stroke="#E39623" stroke-width="7" stroke-linecap="round" stroke-linejoin="round"></line>
        <line x1="404.5" y1="958.5" x2="1226.5" y2="958.5" id="Line-3" stroke="#E39623" stroke-width="15" stroke-linecap="round" stroke-linejoin="round"></line>
        <line x1="437.5" y1="683.5" x2="686.5" y2="687.5" id="Line-3" stroke="#E39623" stroke-width="11" stroke-linecap="round" stroke-linejoin="round"></line>
        <line x1="452.5" y1="720.5" x2="700.5" y2="722.5" id="Line-3" stroke="#E39623" stroke-width="11" stroke-linecap="round" stroke-linejoin="round"></line>
        <line x1="557.5" y1="803.5" x2="678.5" y2="803.5" id="Line-3" stroke="#E39623" stroke-width="11" stroke-linecap="round" stroke-linejoin="round"></line>
        <line x1="713.5" y1="803.5" x2="834.5" y2="803.5" id="Line-3" stroke="#E39623" stroke-width="11" stroke-linecap="round" stroke-linejoin="round"></line>
        <line x1="864.5" y1="803.5" x2="985.5" y2="803.5" id="Line-3" stroke="#E39623" stroke-width="11" stroke-linecap="round" stroke-linejoin="round"></line>
        <line x1="470.5" y1="758.5" x2="1012.5" y2="758.5" id="Line-3" stroke="#E39623" stroke-width="11" stroke-linecap="round" stroke-linejoin="round"></line>
        <line x1="842.5" y1="722.5" x2="1073.5" y2="721.5" id="Line-3" stroke="#E39623" stroke-width="11" stroke-linecap="round" stroke-linejoin="round"></line>
        <line x1="913.5" y1="688.5" x2="1088.5" y2="686.5" id="Line-3" stroke="#E39623" stroke-width="11" stroke-linecap="round" stroke-linejoin="round"></line>
        <line x1="837.5" y1="653.5" x2="958.5" y2="653.5" id="Line-3" stroke="#E39623" stroke-width="11" stroke-linecap="round" stroke-linejoin="round"></line>
        <line x1="430.5" y1="648.5" x2="708.5" y2="649.5" id="Line-3" stroke="#E39623" stroke-width="11" stroke-linecap="round" stroke-linejoin="round"></line>
        <line x1="406.5" y1="538.5" x2="1049.5" y2="538.5" id="Line-3" stroke="#E39623" stroke-width="10" stroke-linecap="round" stroke-linejoin="round"></line>
        <line x1="543.5" y1="562.5" x2="1186.5" y2="562.5" id="Line-3" stroke="#E39623" stroke-width="9" stroke-linecap="round" stroke-linejoin="round"></line>
        <g id="Dachgepäckträger" transform="translate(425.000000, 196.000000)">
            <rect id="Rectangle" fill="#000000" x="0" y="18" width="649" height="42"></rect>
            <line x1="18" y1="117" x2="12" y2="64" id="Line-3" stroke="#E39623" stroke-width="16" stroke-linecap="round" stroke-linejoin="round"></line>
            <line x1="633.5" y1="116.5" x2="641" y2="58" id="Line-3" stroke="#E39623" stroke-width="16" stroke-linecap="round" stroke-linejoin="round"></line>
            <line x1="646.5" y1="58.5" x2="646.5" y2="8.5" id="Line-3" stroke="#E39623" stroke-width="15" stroke-linecap="round" stroke-linejoin="round"></line>
            <line x1="321.5" y1="58.5" x2="321.5" y2="8.5" id="Line-3" stroke="#E39623" stroke-width="15" stroke-linecap="round" stroke-linejoin="round"></line>
            <line x1="2.5" y1="57.5" x2="2.5" y2="7.5" id="Line-3" stroke="#E39623" stroke-width="15" stroke-linecap="round" stroke-linejoin="round"></line>
            <line x1="168.5" y1="58.5" x2="168.5" y2="8.5" id="Line-3" stroke="#E39623" stroke-width="15" stroke-linecap="round" stroke-linejoin="round"></line>
            <line x1="480.5" y1="58.5" x2="480.5" y2="8.5" id="Line-3" stroke="#E39623" stroke-width="15" stroke-linecap="round" stroke-linejoin="round"></line>
            <line x1="3.5" y1="0.5" x2="646.5" y2="0.5" id="Line-3" stroke="#E39623" stroke-width="15" stroke-linecap="round" stroke-linejoin="round"></line>
            <line x1="3.5" y1="55.5" x2="646.5" y2="55.5" id="Line-3" stroke="#E39623" stroke-width="15" stroke-linecap="round" stroke-linejoin="round"></line>
        </g>
        <ellipse id="Oval" stroke="#F5A623" stroke-width="7" cx="770" cy="695" rx="52" ry="51"></ellipse>
        <polygon id="Rectangle" fill="#F5A623" points="770 646.948486 775.352064 691.352783 811.747986 722.462097 769.243973 704.502037 726.73996 719.143738 762.606293 691.352783"></polygon>
        <path d="M1170.04149,374.562001 L1218.49058,377.538634 C1222.71039,377.797892 1226,381.295808 1226,385.523578 L1226,529 C1226,533.418278 1222.41828,537 1218,537 L1180.42788,537 C1176.23947,537 1172.76007,533.769428 1172.44985,529.592522 L1161.57289,383.139467 C1161.24564,378.733324 1164.55225,374.896159 1168.95839,374.568918 C1169.31885,374.542146 1169.68072,374.539835 1170.04149,374.562001 Z" id="Rectangle" stroke="#E39623" stroke-width="11" fill="#000000"></path>
        <path d="M279.512666,377.541501 L328.377282,374.559286 C332.787354,374.290139 336.580611,377.647022 336.849759,382.057095 C336.872068,382.422633 336.86925,382.789271 336.841326,383.154423 L325.565127,530.609994 C325.246278,534.779491 321.770088,538 317.588417,538 L280,538 C275.581722,538 272,534.418278 272,530 L272,385.526644 C272,381.29762 275.291495,377.79912 279.512666,377.541501 Z" id="Rectangle" stroke="#E39623" stroke-width="11" fill="#000000"></path>
        <polyline id="Line" stroke="#E39623" stroke-width="15" stroke-linecap="round" stroke-linejoin="round" points="430.5 349.5 392.40604 327.5 298.5 327.5 298.5 374"></polyline>
        <polyline id="Line-2" stroke="#E39623" stroke-width="15" stroke-linecap="round" stroke-linejoin="round" points="1081.91626 358.75 1115.5 343.5 1199.5 343.5 1208.71143 374"></polyline>
        <path d="M876.808075,312.935867 C936.675354,317.025848 983.352081,339.326889 991.5,343.5 C999.647919,347.673111 1017.72958,370.564369 1028.5,421.138466 C1035.68028,454.85453 1050.76044,490.922063 1073.74048,529.341064 L991.5,522.720718 C999.137604,501.215174 993.729029,479.641602 975.274277,458 C947.592148,425.537598 936.817871,388.676064 913.5,374 C897.006268,363.61899 884.775626,343.264279 876.808075,312.935867 Z" id="Rectangle" fill="#E39623"></path>
    </g>
</svg>